<?xml version="1.0" encoding="UTF-8"?>
<svg width="64px" height="30px" viewBox="0 0 64 30" version="1.1" xmlns="http://www.w3.org/2000/svg" xmlns:xlink="http://www.w3.org/1999/xlink">
    <!-- Generator: Sketch 64 (93537) - https://sketch.com -->
    <title>Group</title>
    <desc>Created with Sketch.</desc>
    <g id="Page-1" stroke="none" stroke-width="1" fill="none" fill-rule="evenodd">
        <g id="Group" transform="translate(-0.000000, 0.000000)" fill-rule="nonzero">
            <path d="M52.5827566,6.21428571 L48.9512041,6.21428571 L48.9512041,9.8354497 L52.5827566,9.8354497 C53.4476781,9.8354497 54.1365413,10.5370851 54.1365413,11.3921597 C54.1365413,12.2556037 53.4476781,12.9460798 52.5827566,12.9460798 L48.9512041,12.9460798 L48.9512041,16.5742184 L52.5827566,16.5742184 C55.4471978,16.5742184 57.7680938,14.2517076 57.7680938,11.3921597 C57.7680938,8.5340067 55.4471978,6.21428571 52.5827566,6.21428571 Z M31.8889156,25.378836 C36.2316879,25.378836 39.9806126,22.8373256 41.7328123,19.1603656 L46.3606314,19.1603656 L46.3606314,25.378836 L48.9512041,25.378836 L48.9512041,19.1603656 L52.5827566,19.1603656 C56.8836102,19.1603656 60.3656529,15.6814815 60.3656529,11.3921597 C60.3656529,7.1070226 56.8836102,3.62534873 52.5827566,3.62534873 L46.3606314,3.62534873 L46.3606314,12.9460798 L42.6648036,12.9460798 C41.9130625,7.6775373 37.3732725,3.62534873 31.8889156,3.62534873 L19.1149051,3.62534873 L6.4135537,25.378836 L9.4442722,25.378836 L13.0716329,19.1603656 L26.1292928,19.1603656 L26.1292928,25.378836 L31.8889156,25.378836 Z M64,11.3921597 C64,17.6845599 58.8845272,22.7829245 52.5827566,22.7829245 L52.5827566,29 L42.7304762,29 L42.7304762,24.1527177 C40.0644499,27.1266474 36.198153,29 31.8889156,29 L22.4949457,29 L22.4949457,22.7829245 L15.1577844,22.7829245 L11.5262319,29 L0,29 L16.9407244,0 L31.8889156,0 C36.198153,0 40.0644499,1.87893218 42.7304762,4.85286195 L42.7304762,0 L52.5827566,0 C58.8845272,0 64,5.10673401 64,11.3921597 Z M22.4949457,6.21428571 L22.4949457,12.9460798 L16.70598,12.9460798 L14.5904853,16.5742184 L26.1292928,16.5742184 L26.1292928,6.21428571 L22.4949457,6.21428571 Z M40.1874113,14.4986051 C40.1874113,19.0752766 36.4678296,22.7829245 31.8889156,22.7829245 L28.7212628,22.7829245 L28.7212628,19.1603656 L31.8889156,19.1603656 C34.4655154,19.1603656 36.5544615,17.0735931 36.5544615,14.4986051 C36.5544615,11.9305916 34.4655154,9.8354497 31.8889156,9.8354497 L28.7212628,9.8354497 L28.7212628,6.21428571 L31.8889156,6.21428571 C36.4678296,6.21428571 40.1874113,9.9247234 40.1874113,14.4986051 L40.1874113,14.4986051 Z" id="Shape" fill="#D02728"></path>
        </g>
    </g>
</svg>